<svg width="122" height="40" viewBox="0 0 122 40" fill="none" xmlns="http://www.w3.org/2000/svg">
<path d="M111.662 0.00013H10.2214C9.85159 0.00013 9.48626 0.00013 9.11747 0.00213C8.80877 0.00413 8.50252 0.00994 8.19085 0.01483C7.51375 0.0227318 6.83824 0.0818063 6.1702 0.19154C5.50309 0.303663 4.85689 0.515046 4.25343 0.81854C3.65072 1.1246 3.1 1.5223 2.62126 1.9972C2.14 2.47077 1.73884 3.01815 1.43319 3.61829C1.1267 4.21724 0.914181 4.85907 0.802969 5.52161C0.690699 6.18332 0.630286 6.85265 0.622271 7.52361C0.612914 7.83021 0.611925 8.13783 0.606995 8.44447V31.5587C0.611925 31.8692 0.612914 32.17 0.622271 32.4806C0.630288 33.1516 0.690702 33.8209 0.802969 34.4825C0.913874 35.1455 1.12641 35.7877 1.43319 36.3868C1.7387 36.985 2.13992 37.5302 2.62126 38.0011C3.09819 38.4781 3.64926 38.8761 4.25343 39.1798C4.85688 39.4841 5.50302 39.6968 6.1702 39.8106C6.83836 39.9195 7.51379 39.9786 8.19085 39.9874C8.50252 39.9942 8.80877 39.9981 9.11747 39.9981C9.48625 40.0001 9.85161 40.0001 10.2214 40.0001H111.662C112.025 40.0001 112.393 40.0001 112.755 39.9981C113.062 39.9981 113.378 39.9942 113.685 39.9874C114.361 39.9791 115.035 39.92 115.702 39.8106C116.371 39.696 117.019 39.4834 117.626 39.1798C118.229 38.8759 118.78 38.478 119.256 38.0011C119.736 37.5284 120.139 36.9836 120.448 36.3868C120.752 35.7872 120.963 35.1451 121.072 34.4825C121.185 33.8208 121.247 33.1516 121.259 32.4806C121.263 32.17 121.263 31.8692 121.263 31.5587C121.271 31.1954 121.271 30.8341 121.271 30.4649V9.53626C121.271 9.17005 121.271 8.80677 121.263 8.44447C121.263 8.13783 121.263 7.83021 121.259 7.52357C121.247 6.85255 121.185 6.18337 121.072 5.52157C120.963 4.85941 120.752 4.21763 120.448 3.61825C119.825 2.41533 118.838 1.43616 117.626 0.81845C117.019 0.515697 116.371 0.30437 115.702 0.19145C115.035 0.0812328 114.361 0.0221378 113.685 0.01469C113.378 0.00981 113.062 0.00395 112.755 0.002C112.393 0 112.025 0 111.662 0V0.00013Z" fill="#A6A6A6"/>
<path d="M9.12246 39.125C8.81524 39.125 8.51543 39.1211 8.21061 39.1143C7.57916 39.1061 6.94919 39.0516 6.32585 38.9512C5.74463 38.8519 5.18158 38.6673 4.65527 38.4033C4.13379 38.1415 3.65816 37.7983 3.2466 37.3867C2.82908 36.98 2.48147 36.5082 2.21756 35.9902C1.95074 35.4688 1.76608 34.9099 1.67002 34.333C1.56628 33.7131 1.51016 33.0863 1.50213 32.458C1.49574 32.2471 1.48737 31.5449 1.48737 31.5449V8.44434C1.48737 8.44434 1.49628 7.75293 1.50218 7.5498C1.50987 6.92248 1.56567 6.29665 1.66909 5.67773C1.76533 5.09925 1.95013 4.53875 2.21709 4.01563C2.48004 3.49794 2.82571 3.02586 3.24072 2.61768C3.65525 2.20562 4.13241 1.8606 4.65478 1.59521C5.17987 1.33209 5.74186 1.14873 6.32191 1.05127C6.94729 0.949836 7.57945 0.894996 8.2131 0.88721L9.12296 0.875H112.75L113.671 0.8877C114.299 0.895099 114.925 0.94945 115.545 1.05029C116.131 1.14898 116.699 1.33362 117.23 1.59814C118.276 2.13299 119.128 2.97916 119.665 4.01807C119.928 4.53758 120.11 5.09351 120.205 5.66699C120.309 6.29099 120.368 6.92174 120.38 7.5542C120.383 7.8374 120.383 8.1416 120.383 8.44434C120.391 8.81934 120.391 9.17627 120.391 9.53613V30.4648C120.391 30.8281 120.391 31.1826 120.383 31.54C120.383 31.8652 120.383 32.1631 120.379 32.4697C120.367 33.0909 120.31 33.7104 120.207 34.3232C120.113 34.9043 119.929 35.4675 119.662 35.9932C119.396 36.5056 119.051 36.9733 118.638 37.3789C118.226 37.7927 117.75 38.1379 117.227 38.4014C116.697 38.6674 116.13 38.8527 115.545 38.9512C114.922 39.0522 114.292 39.1067 113.66 39.1143C113.365 39.1211 113.056 39.125 112.755 39.125L111.662 39.127L9.12246 39.125Z" fill="black"/>
<path d="M25.583 20.3008C25.5938 19.4662 25.8174 18.6478 26.2328 17.9218C26.6483 17.1959 27.2422 16.5859 27.9592 16.1488C27.5037 15.5036 26.9028 14.9727 26.2042 14.5981C25.5055 14.2236 24.7285 14.0157 23.9347 13.9911C22.2414 13.8148 20.5999 14.9959 19.737 14.9959C18.8574 14.9959 17.5289 14.0086 16.0984 14.0378C15.173 14.0674 14.2712 14.3343 13.4808 14.8123C12.6903 15.2904 12.0383 15.9633 11.5881 16.7656C9.63789 20.1141 11.0925 25.0351 12.9606 27.7417C13.8953 29.0671 14.9876 30.5475 16.4169 30.495C17.8156 30.4375 18.3379 29.6105 20.0262 29.6105C21.6988 29.6105 22.1889 30.495 23.6472 30.4616C25.148 30.4375 26.0936 29.1304 26.9955 27.7925C27.667 26.8481 28.1838 25.8044 28.5266 24.7C27.6547 24.3343 26.9106 23.7221 26.3871 22.9398C25.8637 22.1575 25.584 21.2397 25.583 20.3008Z" fill="white"/>
<path d="M22.8286 12.2111C23.6469 11.2369 24.05 9.98469 23.9524 8.72046C22.7022 8.85068 21.5474 9.44324 20.718 10.3801C20.3125 10.8377 20.0019 11.3702 19.804 11.9469C19.6062 12.5237 19.5248 13.1335 19.5647 13.7415C20.1901 13.7478 20.8087 13.6134 21.374 13.3483C21.9394 13.0833 22.4367 12.6944 22.8286 12.2111Z" fill="white"/>
<path d="M43.2631 27.1397H38.4901L37.3439 30.4961H35.3223L39.8431 18.0781H41.9435L46.4644 30.4961H44.4083L43.2631 27.1397ZM38.9844 25.5908H42.7678L40.9027 20.1436H40.8505L38.9844 25.5908Z" fill="white"/>
<path d="M56.228 25.9699C56.228 28.7834 54.7096 30.591 52.4181 30.591C51.8377 30.6211 51.2604 30.4885 50.7524 30.2084C50.2444 29.9283 49.8262 29.5119 49.5457 29.007H49.5023V33.4914H47.6284V21.4426H49.4423V22.9485H49.4768C49.7702 22.446 50.1954 22.0318 50.7073 21.7499C51.2192 21.4681 51.7985 21.3291 52.3837 21.3479C54.7007 21.3479 56.228 23.1643 56.228 25.9699ZM54.3019 25.9699C54.3019 24.1369 53.3467 22.9319 51.8893 22.9319C50.4576 22.9319 49.4945 24.1623 49.4945 25.9699C49.4945 27.7942 50.4576 29.0158 51.8893 29.0158C53.3467 29.0158 54.3019 27.8196 54.3019 25.9699Z" fill="white"/>
<path d="M66.2761 25.9699C66.2761 28.7834 64.7577 30.591 62.4662 30.591C61.8858 30.6211 61.3085 30.4885 60.8005 30.2084C60.2925 29.9283 59.8743 29.5119 59.5938 29.007H59.5504V33.4914H57.6765V21.4426H59.4904V22.9484H59.5248C59.8182 22.446 60.2435 22.0318 60.7553 21.7499C61.2672 21.4681 61.8466 21.3291 62.4317 21.3479C64.7488 21.3479 66.2761 23.1643 66.2761 25.9699ZM64.35 25.9699C64.35 24.1369 63.3948 22.9318 61.9374 22.9318C60.5056 22.9318 59.5426 24.1623 59.5426 25.9699C59.5426 27.7942 60.5056 29.0158 61.9374 29.0158C63.3948 29.0158 64.35 27.8195 64.35 25.9699H64.35Z" fill="white"/>
<path d="M72.9172 27.0362C73.056 28.2676 74.2623 29.0762 75.9107 29.0762C77.4902 29.0762 78.6266 28.2676 78.6266 27.1572C78.6266 26.1934 77.9412 25.6162 76.3184 25.2207L74.6956 24.833C72.3963 24.2822 71.3288 23.2158 71.3288 21.4854C71.3288 19.3428 73.2116 17.8711 75.8851 17.8711C78.5311 17.8711 80.3449 19.3428 80.406 21.4854H78.5143C78.4011 20.2461 77.3681 19.4981 75.8585 19.4981C74.3489 19.4981 73.316 20.2549 73.316 21.3565C73.316 22.2344 73.9757 22.751 75.5897 23.1465L76.9693 23.4824C79.5384 24.0849 80.6059 25.1084 80.6059 26.9248C80.6059 29.248 78.7398 30.7031 75.7719 30.7031C72.9949 30.7031 71.12 29.2822 70.9989 27.0361L72.9172 27.0362Z" fill="white"/>
<path d="M84.6501 19.2998V21.4424H86.3862V22.9141H84.6501V27.9053C84.6501 28.6807 84.9977 29.042 85.7609 29.042C85.967 29.0384 86.1728 29.0241 86.3773 28.999V30.4619C86.0342 30.5255 85.6855 30.5543 85.3365 30.5478C83.4882 30.5478 82.7673 29.8593 82.7673 28.1035V22.9141H81.4399V21.4424H82.7673V19.2998H84.6501Z" fill="white"/>
<path d="M87.3916 25.9697C87.3916 23.1211 89.0833 21.3311 91.7214 21.3311C94.3684 21.3311 96.0522 23.1211 96.0522 25.9697C96.0522 28.8262 94.3772 30.6084 91.7214 30.6084C89.0666 30.6084 87.3916 28.8262 87.3916 25.9697ZM94.1429 25.9697C94.1429 24.0156 93.2399 22.8623 91.7214 22.8623C90.203 22.8623 89.301 24.0244 89.301 25.9697C89.301 27.9316 90.203 29.0762 91.7214 29.0762C93.2399 29.0762 94.1428 27.9316 94.1428 25.9697H94.1429Z" fill="white"/>
<path d="M97.5973 21.4425H99.3846V22.9835H99.4279C99.5489 22.5022 99.8332 22.0769 100.233 21.779C100.633 21.4811 101.124 21.3288 101.624 21.3478C101.84 21.347 102.055 21.3703 102.266 21.4171V23.1554C101.993 23.0728 101.709 23.0348 101.424 23.0431C101.152 23.0321 100.88 23.0797 100.628 23.1826C100.376 23.2855 100.15 23.4412 99.9644 23.6391C99.7789 23.837 99.6388 24.0724 99.5536 24.3291C99.4685 24.5857 99.4404 24.8576 99.4712 25.1261V30.4962H97.5973L97.5973 21.4425Z" fill="white"/>
<path d="M110.906 27.8369C110.654 29.4805 109.04 30.6084 106.975 30.6084C104.319 30.6084 102.671 28.8437 102.671 26.0127C102.671 23.1729 104.328 21.3311 106.896 21.3311C109.422 21.3311 111.01 23.0518 111.01 25.7969V26.4336H104.562V26.5459C104.532 26.8791 104.574 27.2148 104.686 27.5306C104.797 27.8464 104.974 28.1352 105.207 28.3778C105.439 28.6203 105.72 28.8111 106.033 28.9374C106.345 29.0637 106.681 29.1227 107.018 29.1103C107.461 29.1515 107.905 29.0498 108.285 28.8203C108.665 28.5909 108.96 28.246 109.126 27.8369L110.906 27.8369ZM104.571 25.1348H109.135C109.152 24.8352 109.106 24.5354 109.001 24.2541C108.895 23.9729 108.732 23.7164 108.522 23.5006C108.312 23.2849 108.059 23.1145 107.779 23.0003C107.499 22.8861 107.198 22.8305 106.896 22.8369C106.591 22.8351 106.288 22.8933 106.006 23.008C105.724 23.1227 105.467 23.2918 105.251 23.5054C105.035 23.7191 104.863 23.973 104.747 24.2527C104.63 24.5323 104.57 24.8321 104.571 25.1348V25.1348Z" fill="white"/>
</svg>
