<svg width="107" height="13" viewBox="0 0 107 13" fill="none" xmlns="http://www.w3.org/2000/svg">
<g id="logo">
<g id="XMLID_234_">
<path id="XMLID_243_" d="M8.33278 1.46767V7.33465C8.33278 9.2903 7.48249 10.0981 5.4418 10.0981C3.40112 10.0981 2.55083 9.2903 2.55083 7.33465V1.21259H0.595174C0.467631 1.21259 0.340088 1.34013 0.340088 1.46767V7.41967C0.340088 10.6933 2.42329 11.8412 5.4418 11.8412C8.46032 11.8412 10.5435 10.6933 10.5435 7.41967V1.21259H8.58786C8.46032 1.21259 8.33278 1.29761 8.33278 1.46767Z" fill="black"/>
<path id="XMLID_242_" d="M36.7749 2.91316C36.9449 2.91316 37.03 2.87064 37.0725 2.7431L37.6252 1.34013C37.6677 1.2551 37.6252 1.21259 37.5401 1.21259H29.6325C28.9097 1.21259 28.6121 1.42516 28.6121 1.93533V11.0334C28.6121 11.4585 28.8247 11.6711 29.3774 11.6711H36.7324C36.9024 11.6711 36.9874 11.6286 37.03 11.501L37.5826 10.0981C37.6252 10.013 37.5826 9.97053 37.4976 9.97053H30.7804V8.0999C30.7804 7.46219 31.1205 7.16459 32.0983 7.16459H35.0318C35.2018 7.16459 35.2869 7.12207 35.3294 6.99453L35.8821 5.63407C35.9246 5.54904 35.8821 5.50653 35.797 5.50653H30.8229V2.87064H36.7749V2.91316Z" fill="black"/>
<path id="XMLID_238_" fill-rule="evenodd" clip-rule="evenodd" d="M22.8727 6.14426C23.723 5.67657 24.063 4.8688 24.063 3.84848C24.063 1.5527 22.1924 1.21259 20.2368 1.21259H15.7728C15.05 1.21259 14.7524 1.42517 14.7524 1.93533V11.0334C14.7524 11.4585 14.965 11.6711 15.5177 11.6711H21.002C23.0853 11.6711 24.5308 10.8633 24.5308 8.78012C24.5732 7.5047 24.063 6.44183 22.8727 6.14426ZM16.9632 2.87064H20.4069C21.5547 2.87064 21.8948 3.29578 21.8948 4.18857C21.8948 5.08139 21.5547 5.50653 20.4069 5.50653H16.9632V2.87064ZM16.9632 9.97052H20.832C22.0649 9.97052 22.405 9.54538 22.405 8.56757C22.405 7.58972 22.0649 7.12207 20.832 7.12207H18.2811C17.3033 7.12207 16.9632 7.41968 16.9632 8.05737V9.97052Z" fill="black"/>
<path id="XMLID_235_" fill-rule="evenodd" clip-rule="evenodd" d="M48.9764 7.46219L51.3148 11.501C51.3572 11.5435 51.3572 11.6711 51.2722 11.6711H49.274C49.104 11.6711 49.0615 11.6286 48.9764 11.501L46.8507 7.67477H44.9376C43.9598 7.67477 43.6196 7.97235 43.6196 8.61008V11.6711H41.7065C41.579 11.6711 41.4514 11.5435 41.4514 11.416V1.93533C41.4514 1.42517 41.749 1.21259 42.4717 1.21259H46.9358C49.5291 1.21259 51.1022 1.89282 51.1022 4.44366C51.1022 6.39932 50.1243 7.16458 48.9764 7.46219ZM43.5771 6.0592H47.2334C48.5938 6.0592 48.8914 5.54904 48.8914 4.44366C48.8914 3.3808 48.5938 2.87064 47.2334 2.87064H43.5771V6.0592Z" fill="black"/>
</g>
<g id="XMLID_224_">
<path id="XMLID_232_" d="M67.5977 10.7358L67.5552 11.6711H59.8176V1.21259H67.2576L67.3001 2.19041H60.8805V5.80413H66.4073V6.65442H60.8805V10.7358H67.5977Z" fill="#57AD56" stroke="#57AD56" stroke-width="0.25"/>
<g id="XMLID_229_">
<path fill-rule="evenodd" clip-rule="evenodd" d="M74.0174 8.9502H80.182L81.3724 11.6711H82.5628L77.7587 1.21259H76.5258L71.6791 11.6711H72.827L74.0174 8.9502ZM74.4 8.0574L76.6533 2.9982L77.0784 1.93533H77.1209L77.5461 2.9982L79.7568 8.0574H74.4Z" fill="#57AD56"/>
<path d="M80.182 8.9502L80.2965 8.90009L80.2638 8.8252H80.182V8.9502ZM74.0174 8.9502V8.8252H73.9356L73.9029 8.90009L74.0174 8.9502ZM81.3724 11.6711L81.2579 11.7212L81.2906 11.7961H81.3724V11.6711ZM82.5628 11.6711V11.7961H82.7578L82.6764 11.6189L82.5628 11.6711ZM77.7587 1.21259L77.8723 1.16041L77.8388 1.08759H77.7587V1.21259ZM76.5258 1.21259V1.08759H76.4459L76.4123 1.16003L76.5258 1.21259ZM71.6791 11.6711L71.5657 11.6186L71.4834 11.7961H71.6791V11.6711ZM72.827 11.6711V11.7961H72.9088L72.9415 11.7212L72.827 11.6711ZM76.6533 2.9982L76.7675 3.04909L76.7693 3.04463L76.6533 2.9982ZM74.4 8.0574L74.2858 8.00655L74.2075 8.1824H74.4V8.0574ZM77.0784 1.93533V1.81033H76.9938L76.9624 1.88891L77.0784 1.93533ZM77.1209 1.93533L77.237 1.88891L77.2055 1.81033H77.1209V1.93533ZM77.5461 2.9982L77.43 3.04465L77.4315 3.04825L77.5461 2.9982ZM79.7568 8.0574V8.1824H79.9479L79.8714 8.00735L79.7568 8.0574ZM80.182 8.8252H74.0174V9.0752H80.182V8.8252ZM81.4869 11.621L80.2965 8.90009L80.0675 9.0003L81.2579 11.7212L81.4869 11.621ZM82.5628 11.5461H81.3724V11.7961H82.5628V11.5461ZM77.6451 1.26476L82.4492 11.7233L82.6764 11.6189L77.8723 1.16041L77.6451 1.26476ZM76.5258 1.33759H77.7587V1.08759H76.5258V1.33759ZM71.7926 11.7237L76.6392 1.26514L76.4123 1.16003L71.5657 11.6186L71.7926 11.7237ZM72.827 11.5461H71.6791V11.7961H72.827V11.5461ZM73.9029 8.90009L72.7125 11.621L72.9415 11.7212L74.1319 9.0003L73.9029 8.90009ZM76.5391 2.94734L74.2858 8.00655L74.5142 8.10826L76.7674 3.04906L76.5391 2.94734ZM76.9624 1.88891L76.5372 2.95177L76.7693 3.04463L77.1945 1.98176L76.9624 1.88891ZM77.1209 1.81033H77.0784V2.06033H77.1209V1.81033ZM77.6621 2.95177L77.237 1.88891L77.0049 1.98176L77.43 3.04463L77.6621 2.95177ZM79.8714 8.00735L77.6606 2.94815L77.4315 3.04825L79.6423 8.10746L79.8714 8.00735ZM74.4 8.1824H79.7568V7.9324H74.4V8.1824Z" fill="#57AD56"/>
</g>
<path id="XMLID_227_" d="M90.2153 2.19041V11.6711H89.1525V2.19041H85.2411L85.2837 1.21259H94.1692V2.19041H90.2153Z" fill="#57AD56" stroke="#57AD56" stroke-width="0.25"/>
<path id="XMLID_225_" d="M101.737 11.8837C100.291 11.8837 99.1433 11.5435 98.208 10.9909L98.3781 10.0555C99.3559 10.6082 100.461 10.9483 101.779 10.9483C103.735 10.9483 104.755 10.0555 104.755 8.78012C104.755 6.01669 98.3781 7.46217 98.3781 3.89097C98.3781 2.36046 99.526 1 102.204 1C103.437 1 104.543 1.21257 105.435 1.63771L105.265 2.53051C104.288 2.14789 103.352 1.93531 102.247 1.93531C100.164 1.93531 99.3984 2.87063 99.3984 3.80594C99.3984 6.44183 105.776 4.95383 105.776 8.69509C105.733 10.5657 104.373 11.8837 101.737 11.8837Z" fill="#57AD56" stroke="#57AD56" stroke-width="0.25"/>
</g>
</g>
</svg>
